<svg xmlns="http://www.w3.org/2000/svg" version="1.1" xmlns:xlink="http://www.w3.org/1999/xlink" xmlns:svgjs="http://svgjs.com/svgjs" width="100%" height="100%" preserveAspectRatio="none">
    <g mask="url(&quot;#SvgjsMask1224&quot;)" fill="none">
        <rect width="1920" height="1080" x="0" y="0" fill="url(#SvgjsLinearGradient1225)"></rect>
        <path d="M615.31 799.79 a293.64 293.64 0 1 0 587.28 0 a293.64 293.64 0 1 0 -587.28 0z" fill="rgba(28, 83, 142, 0.4)" class="triangle-float1"></path>
        <path d="M1330.039,705.443C1425.855,709.31,1535.93,700.652,1583.618,617.457C1631.162,534.514,1581.727,436.055,1530.85,355.114C1484.19,280.882,1417.449,220.896,1330.039,214.031C1228.886,206.087,1116.478,230.593,1065.991,318.605C1015.664,406.337,1052.572,514.791,1109.592,598.328C1158.957,670.649,1242.547,701.912,1330.039,705.443" fill="rgba(28, 83, 142, 0.4)" class="triangle-float3"></path>
        <path d="M1246.66 946.22 a244.14 244.14 0 1 0 488.28 0 a244.14 244.14 0 1 0 -488.28 0z" fill="rgba(28, 83, 142, 0.4)" class="triangle-float1"></path>
        <path d="M-153.61 316.14 a280.79 280.79 0 1 0 561.58 0 a280.79 280.79 0 1 0 -561.58 0z" fill="rgba(28, 83, 142, 0.4)" class="triangle-float1"></path>
        <path d="M385.03 1003.92 a200.49 200.49 0 1 0 400.98 0 a200.49 200.49 0 1 0 -400.98 0z" fill="rgba(28, 83, 142, 0.4)" class="triangle-float3"></path>
        <path d="M1866.983,643.039C1929.385,646.996,1994.802,630.527,2029.729,578.664C2068.653,520.867,2075.58,444.725,2041.45,383.974C2006.688,322.098,1937.799,284.276,1866.983,288.981C1802.642,293.256,1756.502,346.667,1728.526,404.765C1704.423,454.821,1708.533,512.033,1736.446,560.069C1764.21,607.848,1811.834,639.542,1866.983,643.039" fill="rgba(28, 83, 142, 0.4)" class="triangle-float3"></path>
    </g>
      <rect width="100%" height="100%" style="fill:rgba(255,255,255,0.5);" />
    <defs>
        <mask id="SvgjsMask1224">
            <rect width="1920" height="1080" fill="#ffffff"></rect>
        </mask>
        <linearGradient x1="10.94%" y1="-19.44%" x2="89.06%" y2="119.44%" gradientUnits="userSpaceOnUse" id="SvgjsLinearGradient1225">
            <stop stop-color="#0e2a47" offset="0"></stop>
            <stop stop-color="rgba(148, 158, 0, 1)" offset="1"></stop>
        </linearGradient>
        <style>
            @keyframes float1 {
                0%{transform: translate(0, 0)}
                50%{transform: translate(-10px, 0)}
                100%{transform: translate(0, 0)}
            }

            .triangle-float1 {
                animation: float1 5s infinite;
            }

            @keyframes float2 {
                0%{transform: translate(0, 0)}
                50%{transform: translate(-5px, -5px)}
                100%{transform: translate(0, 0)}
            }

            .triangle-float2 {
                animation: float2 4s infinite;
            }

            @keyframes float3 {
                0%{transform: translate(0, 0)}
                50%{transform: translate(0, -10px)}
                100%{transform: translate(0, 0)}
            }

            .triangle-float3 {
                animation: float3 6s infinite;
            }
        </style>
    </defs>
</svg>