<?xml version="1.0" standalone="no"?>
<!DOCTYPE svg PUBLIC "-//W3C//DTD SVG 20010904//EN"
 "http://www.w3.org/TR/2001/REC-SVG-20010904/DTD/svg10.dtd">
<svg version="1.0" xmlns="http://www.w3.org/2000/svg"
 width="512.000000pt" height="512.000000pt" viewBox="0 0 512.000000 512.000000"
 preserveAspectRatio="xMidYMid meet">
<metadata>
Created by potrace 1.14, written by Peter Selinger 2001-2017
</metadata>
<g transform="translate(0.000000,512.000000) scale(0.100000,-0.100000)"
fill="#000000" stroke="none">
<path d="M2480 4043 c-19 -12 -38 -31 -44 -40 -5 -10 -13 -21 -18 -24 -21 -14
-128 -230 -128 -258 0 -6 -4 -11 -10 -11 -6 0 -9 -3 -8 -7 4 -18 -15 -83 -24
-83 -5 0 -7 -4 -4 -9 5 -7 -1 -31 -22 -91 -7 -20 -13 -51 -13 -72 0 -10 -5
-18 -11 -18 -5 0 -8 -7 -4 -15 3 -8 2 -15 -3 -15 -8 0 -10 -8 -13 -55 -1 -14
-5 -25 -9 -25 -4 0 -6 -8 -4 -17 1 -10 -1 -23 -6 -29 -5 -5 -10 -27 -13 -47
-2 -20 -7 -41 -11 -46 -3 -6 -8 -23 -10 -38 -12 -72 -79 -339 -88 -344 -5 -4
-4 -9 2 -14 7 -4 9 -11 3 -18 -7 -10 -33 -108 -38 -142 -1 -12 -14 -65 -20
-85 -3 -8 -5 -16 -5 -17 0 -2 -6 -21 -14 -43 -8 -22 -11 -40 -8 -40 3 0 -1 -8
-10 -18 -9 -10 -15 -28 -12 -39 2 -12 -3 -27 -11 -34 -8 -6 -14 -18 -14 -25 0
-34 -52 -93 -82 -94 -20 0 -50 36 -69 82 -7 18 -15 35 -18 38 -8 7 -33 72 -34
88 0 6 -3 12 -6 12 -4 0 -13 21 -20 48 -8 26 -18 49 -22 52 -4 3 -9 20 -12 39
-3 19 -9 37 -14 40 -4 3 -9 13 -11 21 -5 22 -118 360 -133 395 -7 17 -13 36
-15 43 -1 8 -6 21 -10 30 -4 9 -8 19 -9 22 -8 31 -31 80 -38 80 -4 0 -6 4 -2
9 6 10 -31 70 -70 114 -26 29 -81 42 -102 25 -7 -6 -13 -7 -13 -4 0 4 -11 -4
-25 -18 -14 -14 -25 -30 -25 -36 0 -5 -4 -10 -10 -10 -5 0 -10 -7 -10 -15 0
-8 -3 -15 -8 -15 -4 0 -12 -8 -17 -18 -26 -48 -48 -99 -50 -117 -1 -5 -9 -26
-18 -45 -22 -50 -30 -74 -28 -84 1 -5 -6 -17 -15 -27 -9 -10 -13 -22 -10 -27
3 -6 -1 -29 -9 -52 -8 -24 -17 -52 -20 -64 -4 -22 -11 -50 -21 -88 -3 -13 -6
-34 -7 -48 -1 -14 -5 -27 -9 -31 -4 -3 -10 -21 -12 -40 -3 -18 -5 -34 -6 -34
-1 0 -3 -7 -5 -15 -10 -45 -16 -73 -21 -97 -3 -16 -12 -55 -21 -88 -9 -33 -16
-66 -16 -72 0 -7 -4 -13 -9 -13 -4 0 -8 -9 -8 -19 0 -10 -8 -29 -18 -41 -17
-21 -18 -21 -37 -3 -20 18 -25 31 -28 65 -1 10 -4 18 -7 18 -4 0 -7 6 -8 13 0
6 -4 26 -8 42 -4 17 -7 38 -8 48 0 9 -4 17 -9 17 -4 0 -6 4 -3 8 3 5 -1 20 -9
35 -8 15 -12 27 -9 27 2 0 -2 13 -10 29 -9 16 -12 31 -9 35 4 3 0 6 -7 6 -7 0
-11 3 -7 6 3 4 0 19 -8 34 -8 15 -12 30 -9 32 2 3 -2 11 -11 18 -8 7 -15 18
-15 24 0 20 -50 70 -71 71 -24 2 -60 -43 -80 -97 -7 -21 -17 -38 -22 -38 -4 0
-6 -4 -3 -9 4 -5 1 -22 -5 -38 -6 -15 -13 -39 -16 -53 -2 -13 -9 -30 -15 -37
-7 -9 -7 -13 1 -13 8 0 7 -9 -3 -29 -9 -16 -12 -31 -9 -35 4 -3 2 -6 -4 -6 -5
0 -10 -6 -10 -12 0 -7 -4 -26 -8 -43 -4 -16 -8 -37 -9 -45 -3 -25 -40 -80 -52
-80 -17 0 -41 25 -49 50 -3 11 -11 20 -17 20 -12 0 -1 -53 12 -58 5 -2 6 -10
3 -18 -3 -8 0 -14 7 -14 6 0 9 -4 5 -9 -3 -5 4 -25 15 -43 11 -18 23 -40 26
-48 7 -19 44 -45 44 -30 0 5 7 10 15 10 8 0 14 3 13 7 -1 5 3 18 10 30 6 12
14 32 16 45 3 13 5 25 6 28 2 3 2 8 1 13 0 4 3 7 7 7 9 0 9 1 16 67 7 67 41
163 59 163 5 0 5 5 2 11 -4 6 2 5 13 -2 26 -17 58 -79 53 -106 -1 -7 2 -13 8
-13 5 0 7 -9 4 -20 -3 -11 -1 -20 3 -20 5 0 10 -10 10 -22 1 -13 5 -34 9 -48
4 -14 9 -36 12 -50 2 -14 7 -32 10 -40 3 -8 7 -21 9 -28 1 -8 6 -21 10 -30 4
-9 9 -23 11 -29 1 -7 5 -19 6 -25 2 -7 9 -26 16 -43 7 -16 13 -38 14 -47 1
-10 6 -18 11 -18 5 0 7 -3 4 -6 -4 -3 0 -17 7 -31 8 -15 12 -30 9 -35 -3 -4
-1 -8 4 -8 8 0 14 -13 22 -48 1 -4 9 -15 18 -26 9 -10 15 -19 14 -20 -7 -2 21
-56 30 -56 4 0 8 -6 8 -13 0 -7 15 -20 34 -29 31 -15 35 -15 62 3 16 10 25 19
19 19 -6 0 -5 4 1 8 11 7 83 149 88 174 2 7 9 27 15 43 7 17 14 37 16 45 2 8
8 27 14 43 6 15 13 38 15 50 2 12 18 66 35 121 17 54 31 105 31 113 0 25 61
161 75 166 20 8 50 1 47 -12 -1 -6 3 -11 10 -11 6 0 8 -3 5 -7 -4 -3 0 -17 8
-30 9 -13 13 -23 9 -23 -4 0 -2 -6 4 -13 6 -7 13 -25 16 -40 2 -15 7 -31 11
-37 3 -6 15 -43 26 -83 11 -39 23 -81 28 -92 5 -11 15 -46 22 -79 7 -32 18
-63 24 -70 6 -6 10 -16 8 -22 -2 -6 2 -24 8 -40 7 -16 11 -33 10 -38 -1 -4 3
-14 9 -20 5 -7 7 -16 3 -19 -3 -4 -2 -7 4 -7 6 0 10 -6 10 -12 -2 -16 19 -91
38 -138 16 -43 28 -73 30 -80 6 -26 30 -92 43 -120 8 -19 15 -41 15 -47 0 -7
4 -13 9 -13 4 0 8 -7 8 -15 0 -9 8 -30 17 -48 9 -18 18 -34 18 -37 5 -26 18
-49 26 -45 5 4 9 -1 9 -9 0 -21 32 -86 42 -86 5 0 7 -4 4 -9 -7 -11 64 -76 92
-85 22 -7 63 10 98 41 34 30 86 112 78 125 -4 6 -3 8 4 4 6 -3 13 4 17 16 4
13 20 49 36 82 16 32 26 62 23 67 -3 5 -1 9 5 9 5 0 13 15 16 32 4 18 11 38
15 43 4 6 22 55 40 110 17 55 36 105 41 112 7 7 5 13 -3 16 -10 4 -10 6 0 6 6
1 12 9 12 19 0 10 3 22 7 26 4 3 8 16 10 28 2 12 7 25 11 28 4 3 7 12 7 20 -1
8 5 25 13 38 8 12 11 22 8 22 -3 0 0 16 8 35 8 19 12 35 9 35 -3 0 2 12 12 26
11 17 12 24 4 18 -9 -5 -7 2 4 19 10 15 15 32 12 37 -3 6 -2 10 3 10 5 0 9 6
10 13 0 6 17 55 36 107 20 52 36 101 36 108 0 6 5 12 11 12 6 0 9 7 5 15 -3 8
-1 15 4 15 6 0 10 8 10 18 0 10 5 23 12 30 7 7 9 12 4 12 -4 0 5 11 20 25 15
14 23 25 18 25 -5 0 5 10 23 21 30 19 34 19 63 4 17 -9 28 -20 25 -25 -3 -5 3
-15 15 -22 11 -7 20 -20 20 -30 0 -9 4 -18 9 -20 5 -1 11 -12 13 -23 1 -11 6
-22 9 -25 4 -4 51 -124 55 -140 0 -3 4 -13 8 -22 4 -9 9 -22 10 -30 2 -7 9
-26 15 -43 7 -16 15 -41 18 -55 2 -13 10 -28 16 -32 7 -4 9 -8 4 -8 -4 0 -1
-15 7 -34 8 -19 12 -37 8 -40 -3 -3 0 -6 6 -6 6 0 9 -9 7 -20 -2 -11 0 -20 4
-20 4 0 8 -6 9 -12 1 -16 6 -36 16 -63 4 -11 14 -37 21 -59 8 -21 12 -43 9
-47 -3 -5 0 -9 6 -9 7 0 10 -7 6 -15 -3 -8 -1 -15 4 -15 8 0 27 -70 21 -79 -2
-2 1 -7 6 -10 10 -8 33 -72 33 -94 0 -9 3 -17 8 -17 7 0 26 -50 37 -93 2 -10
16 -39 30 -64 14 -25 25 -54 25 -64 0 -11 4 -19 8 -19 5 0 17 -18 27 -39 34
-77 119 -145 166 -134 27 6 109 89 109 110 0 7 5 13 11 13 5 0 7 5 4 10 -3 6
-1 10 5 10 6 0 9 4 6 9 -3 5 1 14 9 21 8 7 15 16 15 21 0 5 11 33 25 63 14 30
25 60 25 65 0 6 5 11 12 11 6 0 8 3 5 7 -4 3 -2 11 3 18 5 6 11 20 13 31 2 10
9 29 15 41 7 13 10 23 7 23 -3 0 1 14 10 30 9 17 13 30 9 30 -4 0 -1 7 6 15 6
8 9 18 6 24 -3 5 -2 11 2 13 7 2 33 76 67 188 1 3 4 12 8 20 4 13 14 48 22 85
2 6 14 46 29 90 14 44 26 84 26 90 0 6 8 27 19 48 10 20 15 34 10 31 -5 -3 -9
0 -9 5 0 6 5 11 11 11 5 0 8 4 5 9 -4 5 -2 20 3 33 5 12 9 26 10 30 1 4 9 24
17 45 9 20 18 46 20 57 2 11 9 23 15 26 6 4 10 10 10 14 -3 19 1 26 19 36 43
23 67 -15 115 -185 9 -33 20 -72 25 -87 5 -14 6 -29 3 -32 -4 -3 -1 -6 6 -6 7
0 10 -4 7 -8 -3 -5 1 -20 9 -35 7 -14 11 -28 8 -30 -2 -3 2 -21 11 -40 8 -19
12 -38 8 -41 -3 -3 0 -6 7 -6 7 0 10 -4 7 -8 -3 -5 1 -21 9 -36 8 -15 9 -24 3
-20 -6 4 -4 -6 4 -22 36 -67 61 -125 61 -139 0 -8 4 -12 9 -9 4 3 8 0 8 -6 0
-19 50 -78 71 -83 13 -4 32 5 55 25 19 17 32 33 30 36 -3 2 0 10 7 18 30 34
35 42 29 48 -3 4 -1 11 6 15 7 4 14 18 15 29 1 12 4 22 7 22 3 0 12 20 19 45
7 25 18 45 24 45 6 0 8 3 4 6 -3 4 0 22 8 40 8 19 11 34 8 34 -3 0 0 6 6 13 6
8 8 17 4 20 -3 4 -1 7 6 7 7 0 11 7 8 15 -4 8 -2 17 4 21 6 3 8 11 6 17 -2 7
1 21 6 32 6 11 12 28 13 38 1 9 3 19 4 22 3 6 3 6 20 80 8 33 13 63 12 68 -1
4 2 7 7 7 5 0 11 18 15 40 3 22 11 40 16 40 6 0 10 6 10 14 0 21 29 28 46 12
8 -8 14 -17 14 -20 0 -2 5 -17 11 -33 7 -15 13 -35 15 -43 7 -38 14 -77 18
-100 3 -14 5 -25 6 -25 1 0 3 -11 6 -24 8 -45 42 -109 64 -121 15 -8 20 -8 16
-1 -4 6 0 11 8 11 9 0 16 7 16 15 0 8 9 22 19 32 11 10 22 30 25 43 2 14 11
42 20 62 9 21 16 48 15 60 0 19 -4 15 -20 -17 -10 -22 -19 -35 -19 -30 0 6 -5
2 -11 -7 -5 -10 -17 -18 -25 -18 -18 0 -46 25 -37 34 3 3 0 12 -6 20 -7 8 -10
19 -7 25 3 5 2 11 -3 13 -5 1 -11 19 -13 38 -1 19 -7 38 -11 41 -4 3 -9 21
-11 40 -2 19 -6 41 -9 49 -3 8 -15 44 -26 80 -23 75 -54 148 -73 171 -27 32
-88 28 -88 -6 0 -8 -4 -15 -8 -15 -10 0 -37 -51 -33 -64 1 -4 -6 -14 -16 -22
-10 -7 -15 -14 -11 -14 4 0 0 -19 -8 -42 -9 -24 -17 -51 -19 -61 -2 -9 -7 -22
-11 -28 -9 -16 -33 -110 -36 -146 -1 -7 -4 -13 -8 -13 -4 0 -7 -6 -8 -12 -2
-30 -12 -62 -23 -68 -6 -4 -10 -10 -10 -14 1 -3 -1 -6 -4 -6 -3 0 -9 0 -15 0
-11 0 -55 80 -52 93 2 8 -6 38 -26 97 -3 8 -4 25 -3 37 1 11 -3 24 -9 28 -5 3
-8 11 -5 16 4 5 3 15 -1 21 -8 12 -9 17 -18 68 -2 14 -5 27 -6 30 -1 3 -3 10
-5 15 -1 6 -3 13 -5 18 -1 4 -4 16 -5 27 -1 11 -4 21 -5 23 -1 1 -4 11 -6 22
-1 11 -5 29 -8 40 -16 59 -28 111 -29 123 0 6 -5 12 -10 12 -6 0 -8 3 -4 6 3
3 -1 23 -8 45 -8 22 -14 41 -15 44 -5 35 -14 65 -21 65 -5 0 -8 3 -7 8 2 4 -5
28 -16 52 -49 118 -62 140 -133 214 -60 63 -129 34 -188 -81 -11 -21 -24 -41
-28 -44 -5 -3 -9 -10 -9 -15 0 -5 -4 -20 -9 -32 -5 -13 -7 -28 -3 -33 3 -5 1
-9 -5 -9 -5 0 -15 -17 -21 -37 -6 -21 -14 -45 -16 -53 -3 -8 -5 -16 -5 -17 0
-2 -6 -20 -14 -42 -7 -22 -11 -42 -8 -45 4 -3 1 -6 -5 -6 -7 0 -12 -9 -12 -20
0 -11 -5 -20 -11 -20 -5 0 -8 -4 -4 -9 3 -5 1 -20 -4 -33 -17 -42 -24 -63 -28
-82 -2 -10 -12 -39 -23 -63 -11 -25 -17 -49 -14 -54 3 -5 0 -9 -5 -9 -6 0 -11
-9 -11 -19 0 -11 -4 -22 -9 -26 -5 -3 -12 -19 -16 -36 -4 -17 -13 -42 -20 -56
-8 -15 -12 -30 -9 -35 3 -4 0 -8 -6 -8 -6 0 -8 -4 -5 -10 3 -5 2 -10 -3 -10
-5 0 -9 -6 -9 -12 0 -7 -10 -35 -23 -63 -13 -27 -24 -56 -26 -64 -1 -8 -9 -18
-16 -22 -7 -5 -9 -9 -5 -9 15 0 -28 -37 -50 -43 -16 -3 -23 -1 -23 9 0 8 -6
14 -13 14 -10 0 -58 93 -63 122 -1 5 -3 10 -4 13 -1 3 -4 10 -5 15 -1 6 -4 12
-5 15 -1 3 -3 8 -5 13 -1 4 -5 15 -9 24 -4 9 -5 22 -1 28 3 5 2 10 -3 10 -9 0
-37 108 -82 310 -11 52 -25 109 -30 125 -5 17 -15 60 -21 98 -7 37 -16 67 -20
67 -5 0 -6 7 -3 15 3 8 2 20 -2 27 -4 7 -9 19 -10 28 -3 20 -12 55 -14 55 -1
0 -3 9 -5 20 -5 32 -15 79 -21 97 -3 9 -7 27 -10 40 -9 39 -12 53 -14 53 -2 0
-11 38 -12 53 -1 6 -5 12 -9 12 -4 0 -6 11 -4 25 1 14 -2 25 -7 25 -5 0 -6 5
-3 10 3 6 1 10 -6 10 -6 0 -9 8 -6 20 3 11 1 23 -4 26 -5 3 -14 25 -20 50 -6
24 -15 44 -20 44 -4 0 -6 9 -4 20 2 11 0 22 -6 25 -5 4 -9 15 -9 26 0 10 -5
19 -11 19 -5 0 -8 4 -4 9 3 5 -2 16 -10 25 -8 8 -16 26 -17 40 -1 14 -8 26
-15 26 -7 0 -12 3 -11 8 7 33 -112 168 -139 158 -7 -3 -13 -1 -13 5 0 18 -76
6 -110 -18z"/>
</g>
</svg>
